# xmcd CD database file
#
# Track frame offsets:
#	150
#	21002
#	39910
#	59537
#	84227
#	107400
#	121112
#	136087
#	159087
#	180692
#	199782
#	220542
#	241230
#
# Disc length: 3488 seconds
#
# Revision: 2
# Processed by: cddbd v1.5.2PL0 Copyright (c) Steve Scherf et al.
# Submitted via: CDex 1.51
#
DISCID=950d9e0d
DTITLE=Cassandra Wilson - Glamoured
DYEAR=2003
DGENRE=Jazz
TTITLE0=Fragile
TTITLE1=Sleight Of Time
TTITLE2=I Want More
TTITLE3=If Loving You Is Wrong
TTITLE4=Lay Lady Lay
TTITLE5=Crazy
TTITLE6=What Is It?
TTITLE7=Heaven Knows
TTITLE8=Honey Bee
TTITLE9=Broken Drum
TTITLE10=On This Train
TTITLE11=Throw It Away
TTITLE12=Allow Me
EXTD=YEAR: 2003
EXTT0=
EXTT1=
EXTT2=
EXTT3=
EXTT4=
EXTT5=
EXTT6=
EXTT7=
EXTT8=
EXTT9=
EXTT10=
EXTT11=
EXTT12=
PLAYORDER=
